<svg xmlns="http://www.w3.org/2000/svg" viewBox="0 0 390 388">
  <defs>
    <style>
      .cls-1 {
        fill: #46c8c8;
      }

      .cls-2, .cls-4 {
        fill: #fff;
      }

      .cls-3, .cls-6 {
        fill: none;
      }

      .cls-3, .cls-4 {
        stroke: #46c8c8;
        stroke-width: 5px;
      }

      .cls-5 {
        stroke: none;
      }
    </style>
  </defs>
  <g id="Group_1" data-name="Group 1" transform="translate(-185 -123)">
    <rect id="Rectangle_1" data-name="Rectangle 1" class="cls-1" width="390" height="388" rx="131" transform="translate(185 123)"/>
    <path id="Rectangle_2" data-name="Rectangle 2" class="cls-2" d="M67,0H185a70,70,0,0,1,70,70v56a0,0,0,0,1,0,0H0a0,0,0,0,1,0,0V67A67,67,0,0,1,67,0Z" transform="translate(259 315)"/>
    <ellipse id="Ellipse_2" data-name="Ellipse 2" class="cls-1" cx="86.5" cy="85.5" rx="86.5" ry="85.5" transform="translate(300 161)"/>
    <ellipse id="Ellipse_1" data-name="Ellipse 1" class="cls-2" cx="74.5" cy="69.5" rx="74.5" ry="69.5" transform="translate(311 177)"/>
    <line id="Line_1" data-name="Line 1" class="cls-3" x2="1" y2="56" transform="translate(327.5 314.5)"/>
    <g id="Ellipse_3" data-name="Ellipse 3" class="cls-4" transform="translate(306 368)">
      <ellipse class="cls-5" cx="23" cy="23.5" rx="23" ry="23.5"/>
      <ellipse class="cls-6" cx="23" cy="23.5" rx="20.5" ry="21"/>
    </g>
    <line id="Line_2" data-name="Line 2" class="cls-3" x2="2" y2="56" transform="translate(443.5 313.5)"/>
    <g id="Rectangle_3" data-name="Rectangle 3" class="cls-4" transform="translate(406 368)">
      <path class="cls-5" d="M30,0H48A30,30,0,0,1,78,30v0A15,15,0,0,1,63,45H12A12,12,0,0,1,0,33V30A30,30,0,0,1,30,0Z"/>
      <path class="cls-6" d="M30,2.5H48A27.5,27.5,0,0,1,75.5,30v0A12.5,12.5,0,0,1,63,42.5H12A9.5,9.5,0,0,1,2.5,33V30A27.5,27.5,0,0,1,30,2.5Z"/>
    </g>
    <rect id="Rectangle_4" data-name="Rectangle 4" class="cls-2" width="30" height="12" transform="translate(430 406)"/>
  </g>
</svg>
